<svg id="visual" viewBox="0 0 960 60" width="960" height="60" xmlns="http://www.w3.org/2000/svg" xmlns:xlink="http://www.w3.org/1999/xlink" version="1.1"><rect x="0" y="0" width="960" height="60" fill="#fff"></rect><path d="M0 39L22.8 38.2C45.7 37.3 91.3 35.7 137 35.2C182.7 34.7 228.3 35.3 274 35.5C319.7 35.7 365.3 35.3 411.2 34.7C457 34 503 33 548.8 35C594.7 37 640.3 42 686 43.7C731.7 45.3 777.3 43.7 823 41C868.7 38.3 914.3 34.7 937.2 32.8L960 31L960 0L937.2 0C914.3 0 868.7 0 823 0C777.3 0 731.7 0 686 0C640.3 0 594.7 0 548.8 0C503 0 457 0 411.2 0C365.3 0 319.7 0 274 0C228.3 0 182.7 0 137 0C91.3 0 45.7 0 22.8 0L0 0Z" fill="#e9dce2"></path><path d="M0 29L22.8 29.7C45.7 30.3 91.3 31.7 137 32.3C182.7 33 228.3 33 274 31.5C319.7 30 365.3 27 411.2 26.5C457 26 503 28 548.8 28.8C594.7 29.7 640.3 29.3 686 29.5C731.7 29.7 777.3 30.3 823 32C868.7 33.7 914.3 36.3 937.2 37.7L960 39L960 0L937.2 0C914.3 0 868.7 0 823 0C777.3 0 731.7 0 686 0C640.3 0 594.7 0 548.8 0C503 0 457 0 411.2 0C365.3 0 319.7 0 274 0C228.3 0 182.7 0 137 0C91.3 0 45.7 0 22.8 0L0 0Z" fill="#e2d2d5"></path><path d="M0 24L22.8 23C45.7 22 91.3 20 137 18.8C182.7 17.7 228.3 17.3 274 19.3C319.7 21.3 365.3 25.7 411.2 27.7C457 29.7 503 29.3 548.8 28.3C594.7 27.3 640.3 25.7 686 24.5C731.7 23.3 777.3 22.7 823 23.8C868.7 25 914.3 28 937.2 29.5L960 31L960 0L937.2 0C914.3 0 868.7 0 823 0C777.3 0 731.7 0 686 0C640.3 0 594.7 0 548.8 0C503 0 457 0 411.2 0C365.3 0 319.7 0 274 0C228.3 0 182.7 0 137 0C91.3 0 45.7 0 22.8 0L0 0Z" fill="#dbc8c8"></path><path d="M0 17L22.8 17.5C45.7 18 91.3 19 137 19.7C182.7 20.3 228.3 20.7 274 20.8C319.7 21 365.3 21 411.2 20.7C457 20.3 503 19.7 548.8 18.5C594.7 17.3 640.3 15.7 686 16.3C731.7 17 777.3 20 823 19.7C868.7 19.3 914.3 15.7 937.2 13.8L960 12L960 0L937.2 0C914.3 0 868.7 0 823 0C777.3 0 731.7 0 686 0C640.3 0 594.7 0 548.8 0C503 0 457 0 411.2 0C365.3 0 319.7 0 274 0C228.3 0 182.7 0 137 0C91.3 0 45.7 0 22.8 0L0 0Z" fill="#d3bfbb"></path><path d="M0 13L22.8 11.5C45.7 10 91.3 7 137 7C182.7 7 228.3 10 274 11.2C319.7 12.3 365.3 11.7 411.2 10.5C457 9.3 503 7.7 548.8 7.7C594.7 7.7 640.3 9.3 686 10.2C731.7 11 777.3 11 823 10.2C868.7 9.3 914.3 7.7 937.2 6.8L960 6L960 0L937.2 0C914.3 0 868.7 0 823 0C777.3 0 731.7 0 686 0C640.3 0 594.7 0 548.8 0C503 0 457 0 411.2 0C365.3 0 319.7 0 274 0C228.3 0 182.7 0 137 0C91.3 0 45.7 0 22.8 0L0 0Z" fill="#c9b6ae"></path></svg>