<svg width="960" height="30" xmlns="http://www.w3.org/2000/svg">

 <g>
  <title>Layer 1</title>
  <path id="svg_5" d="m485,20" opacity="NaN" stroke-width="4" stroke="#000" fill="none"/>
  <path stroke="null" id="svg_6" d="m476.15589,25.82976c-6.52079,-6.31816 -8.85223,-10.31492 -8.87113,-15.20767c-0.01723,-4.46034 2.86081,-8.76523 5.8434,-8.74041c1.48937,0.01242 4.68417,1.65407 5.81545,2.98832c0.57001,0.67227 0.83999,0.60598 2.10906,-0.51787c3.45386,-3.05863 6.82659,-3.12283 9.01092,-0.17151c3.49102,4.71683 2.85544,10.34958 -1.82707,16.19227c-2.48949,3.10631 -7.926,8.61708 -8.50095,8.61708c-0.17495,0 -1.7858,-1.42211 -3.57967,-3.16023l0,0z" stroke-width="0" fill="#c9b6ae"/>
  <rect id="svg_9" height="2" width="450" y="15" x="510" stroke-width="0" stroke="#000" fill="#c9b6ae"/>
  <rect id="svg_10" height="2" width="450" y="13" x="0" stroke-width="0" stroke="#000" fill="#c9b6ae"/>
 </g>
</svg>